<?xml version="1.0" encoding="utf-8"?>
<!-- Generator: Adobe Illustrator 19.0.0, SVG Export Plug-In . SVG Version: 6.00 Build 0)  -->
<svg version="1.1" id="Layer_1" xmlns="http://www.w3.org/2000/svg" xmlns:xlink="http://www.w3.org/1999/xlink" x="0px" y="0px"
	 viewBox="0 0 569.9 138.2" enable-background="new 0 0 569.9 138.2" xml:space="preserve">
<g id="XMLID_2_">
</g>
<g id="XMLID_13_">
	<g id="XMLID_3_">
		<defs>
			<path id="XMLID_4_" d="M72.6,38.6h-8v8h8V38.6z M64.6,26.7v8h8v-8H64.6z M52.7,34.6h8v-8h-8V34.6z M52.7,46.6h8v-8h-8V46.6z
				 M29.9,18.9l-11,6.4v38.5h-8.5V30.2L0,36.2v89.2h29.9V18.9z M86.9,68.2H38.3v57.2h48.6V68.2z M38.3,14v45.7h57.1
				c0,20.1,0,44.7,0,65.6h12.2V86.9h8.5v38.5h9.2V36.1L62.6,0L38.3,14z"/>
		</defs>
		<use xlink:href="#XMLID_4_"  overflow="visible" fill-rule="evenodd" clip-rule="evenodd" fill="#B88E75"/>
		<clipPath id="XMLID_94_">
			<use xlink:href="#XMLID_4_"  overflow="visible"/>
		</clipPath>
		<rect id="XMLID_12_" x="0" y="0" clip-path="url(#XMLID_94_)" fill="#B88E75" width="125.2" height="125.4"/>
	</g>
	<g id="XMLID_1_">
		<path id="XMLID_67_" fill="#FFFFFF" d="M161.1,110V20.4h23.7V110H161.1z"/>
		<path id="XMLID_69_" fill="#FFFFFF" d="M198.2,110V46h21.8l1.3,11.8V110H198.2z M238.3,77.2c0-2.5-0.3-4.5-0.8-6.1
			c-0.6-1.6-1.4-2.8-2.4-3.6c-1.1-0.9-2.4-1.3-4-1.4c-3.2-0.2-5.7,0.6-7.3,2.2c-1.6,1.6-2.4,4.2-2.4,7.7H215c0-6.7,1-12.5,3.1-17.2
			c2-4.7,4.8-8.3,8.3-10.7c3.5-2.4,7.5-3.6,11.9-3.6c7.8,0,13.7,2.3,17.4,7c3.8,4.7,5.6,12,5.6,21.9L238.3,77.2z M238.3,110V77.2
			l23-3.8V110H238.3z"/>
		<path id="XMLID_73_" fill="#FFFFFF" d="M269,65.2V46h45.8v19.2H269z M302,111.5c-7.9,0-13.8-1.9-17.7-5.6
			c-3.8-3.8-5.8-9.1-5.8-16.1V26h23v57.5c0,2.4,0.3,4.1,1,5.1c0.7,1,1.8,1.5,3.5,1.5c0.7,0,1.5-0.2,2.6-0.6c1-0.4,1.8-0.9,2.4-1.3
			l7.8,16.6c-2,1.7-4.5,3.2-7.7,4.6C308.1,110.9,305,111.5,302,111.5z"/>
		<path id="XMLID_76_" fill="#FFFFFF" d="M359,111.5c-6.9,0-13.1-1.4-18.4-4.2s-9.6-6.7-12.6-11.8c-3-5-4.5-10.9-4.5-17.5
			s1.5-12.5,4.5-17.5c3-5,7.1-9,12.4-11.8c5.3-2.8,11.4-4.2,18.3-4.2c6.6,0,12.4,1.4,17.3,4.3c5,2.9,8.9,7.2,11.8,13
			c2.9,5.8,4.3,13.1,4.3,22h-22.7c0-4.5-0.3-8.5-0.8-12c-0.6-3.5-1.7-6.3-3.3-8.3c-1.7-2-4.2-3-7.5-3c-2.6,0-4.8,0.7-6.4,2.2
			c-1.6,1.5-2.8,3.6-3.5,6.4c-0.7,2.8-1,6.1-1,10c0,3.8,0.5,6.7,1.6,8.9c1.1,2.2,2.5,3.7,4.2,4.6c1.7,0.9,3.6,1.3,5.7,1.3
			c2.8,0,5.3-0.7,7.4-2c2.1-1.3,3.4-3,3.9-4.9l20.2,6.3c-1.5,4.4-4,8-7.4,10.7c-3.4,2.7-7.1,4.6-11.3,5.8
			C367,111,363,111.5,359,111.5z M338,83.8l0.1-14.1h43.3v14.1H338z"/>
		<path id="XMLID_79_" fill="#FFFFFF" d="M399,110V46h23v64H399z M416.7,77.4c0-6.9,1.4-12.7,4.2-17.4c2.8-4.7,6.3-8.2,10.6-10.6
			c4.3-2.4,8.7-3.6,13.3-3.6v22.5c-4,0-7.7,0.4-11.2,1.1c-3.5,0.7-6.2,1.8-8.3,3.3c-2.1,1.5-3.1,3.2-3.1,5.2L416.7,77.4z"/>
		<path id="XMLID_82_" fill="#FFFFFF" d="M472.7,111.5c-7.4,0-13.2-1.7-17.3-5.1c-4.1-3.4-6.2-8.2-6.2-14.5c0-6.7,2.1-11.6,6.2-14.8
			c4.1-3.2,9.9-4.8,17.3-4.8h18.8v13.2h-10c-3,0-5.3,0.5-6.9,1.5c-1.6,1-2.4,2.5-2.4,4.4c0,1.3,0.5,2.3,1.6,2.9c1.1,0.7,2.5,1,4.4,1
			c2.1,0,3.9-0.4,5.4-1.3c1.5-0.9,2.7-2.1,3.5-3.6c0.9-1.6,1.3-3.4,1.3-5.4l6.7-2.4c0,9.3-2,16.4-5.9,21.4
			C485.3,109,479.8,111.5,472.7,111.5z M489.8,110l-0.6-31.4c0-3-0.2-5.7-0.6-8.1c-0.4-2.4-1.3-4.3-2.8-5.6c-1.5-1.4-3.9-2-7.4-2
			c-1.9,0-3.5,0.4-4.7,1.2c-1.3,0.8-2.6,2.1-4,3.9l-20.4-6.4c2-3.5,4.5-6.5,7.2-9.1c2.8-2.6,6-4.5,9.7-6c3.7-1.4,7.9-2.1,12.6-2.1
			c6.8,0,12.7,1.2,17.5,3.7c4.9,2.5,8.6,5.9,11.1,10.4c2.6,4.4,3.8,9.6,3.8,15.5v36H489.8z"/>
		<path id="XMLID_85_" fill="#FFFFFF" d="M522.3,110V46h23v64H522.3z M539.9,77.4c0-6.9,1.4-12.7,4.2-17.4
			c2.8-4.7,6.3-8.2,10.6-10.6c4.3-2.4,8.7-3.6,13.3-3.6v22.5c-4,0-7.7,0.4-11.2,1.1c-3.5,0.7-6.2,1.8-8.3,3.3
			c-2.1,1.5-3.1,3.2-3.1,5.2L539.9,77.4z"/>
	</g>
</g>
<g id="XMLID_66_">
</g>
<g id="XMLID_88_">
</g>
<g id="XMLID_89_">
</g>
<g id="XMLID_90_">
</g>
<g id="XMLID_91_">
</g>
<g id="XMLID_92_">
</g>
</svg>
